HIERARCHY
ROOT RootJoint
{
    OFFSET   0.000000   0.000000   0.000000
    CHANNELS 6 Xposition Yposition Zposition Xrotation Yrotation Zrotation
    JOINT pelvis_lowerback
    {
        OFFSET   0.000000   0.093605   0.000000
        CHANNELS 3 Xrotation Yrotation Zrotation
        JOINT lowerback_torso
        {
            OFFSET   0.000000   0.100000   0.000000
            CHANNELS 3 Xrotation Yrotation Zrotation
            JOINT torso_head
            {
                OFFSET   0.000000   0.282350   0.000000
                CHANNELS 3 Xrotation Yrotation Zrotation
                End Site
                {
                    OFFSET   0.000000   0.192650   0.000000
                }
            }
            JOINT rTorso_Clavicle
            {
                OFFSET  -0.001000   0.157500   0.000000
                CHANNELS 3 Xrotation Yrotation Zrotation
                JOINT rShoulder
                {
                    OFFSET  -0.117647   0.000000   0.000000
                    CHANNELS 3 Xrotation Yrotation Zrotation
                    JOINT rElbow
                    {
                        OFFSET  -0.245000   0.000000   0.000000
                        CHANNELS 3 Xrotation Yrotation Zrotation
                        JOINT rWrist
                        {
                            OFFSET  -0.240000   0.000000   0.000000
                            CHANNELS 3 Xrotation Yrotation Zrotation
                            End Site
                            {
                                OFFSET  -0.116353  -0.002500   0.000000
                            }
                        }
                    }
                }
            }
            JOINT lTorso_Clavicle
            {
                OFFSET   0.001000   0.157500   0.000000
                CHANNELS 3 Xrotation Yrotation Zrotation
                JOINT lShoulder
                {
                    OFFSET   0.117647   0.000000   0.000000
                    CHANNELS 3 Xrotation Yrotation Zrotation
                    JOINT lElbow
                    {
                        OFFSET   0.245000   0.000000   0.000000
                        CHANNELS 3 Xrotation Yrotation Zrotation
                        JOINT lWrist
                        {
                            OFFSET   0.240000   0.000000   0.000000
                            CHANNELS 3 Xrotation Yrotation Zrotation
                            End Site
                            {
                                OFFSET   0.116353  -0.002500   0.000000
                            }
                        }
                    }
                }
            }
        }
    }
    JOINT rHip
    {
        OFFSET  -0.100000  -0.051395   0.000000
        CHANNELS 3 Xrotation Yrotation Zrotation
        JOINT rKnee
        {
            OFFSET   0.000000  -0.410000   0.000000
            CHANNELS 3 Xrotation Yrotation Zrotation
            JOINT rAnkle
            {
                OFFSET   0.000000  -0.390000   0.000000
                CHANNELS 3 Xrotation Yrotation Zrotation
                JOINT rToeJoint
                {
                    OFFSET   0.000000  -0.050000   0.130000
                    CHANNELS 3 Xrotation Yrotation Zrotation
                    End Site
                    {
                        OFFSET  -0.010000   0.002000   0.060000
                    }
                }
            }
        }
    }
    JOINT lHip
    {
        OFFSET   0.100000  -0.051395   0.000000
        CHANNELS 3 Xrotation Yrotation Zrotation
        JOINT lKnee
        {
            OFFSET   0.000000  -0.410000   0.000000
            CHANNELS 3 Xrotation Yrotation Zrotation
            JOINT lAnkle
            {
                OFFSET   0.000000  -0.390000   0.000000
                CHANNELS 3 Xrotation Yrotation Zrotation
                JOINT lToeJoint
                {
                    OFFSET   0.000000  -0.050000   0.130000
                    CHANNELS 3 Xrotation Yrotation Zrotation
                    End Site
                    {
                        OFFSET   0.010000   0.002000   0.060000
                    }
                }
            }
        }
    }
}
MOTION
Frames: 14
Frame Time:   0.008333
 -1.486094   0.920032   5.963965   7.636652  25.156981  -9.225434  16.872037  -6.046873  -2.153893   5.430282  -5.863560   3.625300  -0.773467   2.374697   0.040232   6.461821  -8.006555  -0.556626  15.229585  -0.343952  48.760611  -0.006178  38.064917   0.000172   2.130296   4.488288   1.415444  -3.110975  -4.262350   3.325529 -12.652080  -9.974914 -34.572800   0.007075 -69.010546   0.007610   2.219903  -6.868090   9.610225 -28.196175   0.353617   2.076321  29.546570   0.008002   0.007300 -10.217457  -0.446079   7.514304  -2.298688  -0.000344  -0.000582  -1.379971   0.540859  14.382459  16.036535   0.000301   0.002004  -7.631248   1.696489  -3.641688 -22.076879  -0.006886   0.013908
 -1.483277   0.922033   5.971917   7.696114  24.958522  -9.021850  16.611528  -6.083671  -1.951425   5.580128  -5.876565   3.686664  -0.741571   2.117654  -0.022025   6.536190  -8.073967  -0.525008  15.171607  -0.358210  48.979483  -0.006859  37.820767   0.000442   2.123165   4.435188   1.151704  -2.739900  -3.883474   3.237029 -11.517750  -9.873586 -35.406782  -0.019612 -68.249742  -0.016383   2.332333  -7.350956   9.624769 -27.937682   0.385022   2.145582  29.143869   0.007356   0.006354  -9.889243  -0.487693   7.202388  -2.297875  -0.000274  -0.000467  -1.197651   0.463496  14.217011  16.476681  -0.000324   0.000462  -5.779021   1.552439  -3.810850 -25.787446  -0.009821   0.019597
 -1.480428   0.923917   5.980151   7.712755  24.725248  -8.796457  16.345346  -6.081589  -1.740470   5.745662  -5.861395   3.735206  -0.721475   1.871531  -0.074985   6.609433  -8.144128  -0.447229  15.121271  -0.363744  49.219717  -0.007480  37.592017   0.000727   2.113056   4.376491   0.930088  -2.287811  -3.475177   3.051978 -10.358952  -9.735984 -36.250133  -0.040333 -67.466577  -0.034336   2.380545  -7.466303   9.410012 -27.593363   0.430988   2.231588  28.823502   0.006687   0.005553  -9.578792  -0.527299   6.910834  -2.280185  -0.000213  -0.000418  -1.034542   0.386327  14.049788  17.038203  -0.001045  -0.001193  -3.857811   1.395432  -3.936822 -29.719322  -0.011909   0.025655
 -1.477603   0.925613   5.988561   7.724028  24.461134  -8.564223  16.073920  -6.047030  -1.534464   5.905387  -5.814076   3.777441  -0.708155   1.641426  -0.117985   6.682467  -8.215331  -0.343327  15.079000  -0.364996  49.467765  -0.007939  37.377989   0.001012   2.102297   4.321365   0.768901  -1.810183  -3.050517   2.813444  -9.224390  -9.588667 -37.075694  -0.053718 -66.710776  -0.045509   2.395826  -7.402859   9.071257 -27.214085   0.475309   2.323504  28.556161   0.006052   0.004905  -9.287988  -0.565539   6.639017  -2.261971  -0.000169  -0.000385  -0.880099   0.311629  13.879889  17.627559  -0.001738  -0.002698  -2.008983   1.236754  -4.041042 -33.254378  -0.013525   0.030230
 -1.474836   0.927099   5.997084   7.746383  24.181082  -8.331635  15.802693  -5.988979  -1.336776   6.052219  -5.742492   3.817025  -0.698900   1.426771  -0.154341   6.752867  -8.283549  -0.225052  15.041719  -0.362714  49.715279  -0.008206  37.178212   0.001281   2.091418   4.270639   0.653221  -1.333113  -2.624252   2.553335  -8.134903  -9.443771 -37.867239  -0.061073 -65.992582  -0.051384   2.396323  -7.256868   8.683201 -26.821617   0.516813   2.413373  28.324889   0.005466   0.004361  -9.016006  -0.602513   6.385579  -2.244197  -0.000137  -0.000362  -0.736917   0.237723  13.706556  18.215097  -0.002350  -0.003940  -0.255937   1.076468  -4.131886 -36.309082  -0.014648   0.032910
 -1.472146   0.928357   6.005687   7.786965  23.897069  -8.104460  15.535039  -5.914213  -1.145258   6.184389  -5.653437   3.856948  -0.691884   1.226596  -0.186261   6.818895  -8.346475  -0.101489  15.007134  -0.357449  49.956293  -0.008287  36.992331   0.001521   2.080669   4.225903   0.568431  -0.870029  -2.205861   2.290539  -7.100111  -9.307334 -38.616869  -0.063901 -65.315406  -0.053434   2.390579  -7.073234   8.283383 -26.426950   0.555760   2.499058  28.121055   0.004928   0.003883  -8.761829  -0.638144   6.149278  -2.227328  -0.000113  -0.000341  -0.606354   0.165171  13.532058  18.788173  -0.002849  -0.004876   1.404354   0.916420  -4.210433 -38.948794  -0.015162   0.033908
 -1.469541   0.929374   6.014351   7.848710  23.618044  -7.885982  15.272764  -5.828066  -0.958144   6.301723  -5.552233   3.899332  -0.686077   1.039933  -0.214849   6.879654  -8.403142   0.021476  14.973868  -0.349797  50.187067  -0.008205  36.819757   0.001723   2.070209   4.188220   0.503528  -0.427853  -1.800990   2.035634  -6.123866  -9.182007 -39.321353  -0.063513 -64.679825  -0.052852   2.382810  -6.875123   7.890742 -26.036129   0.592554   2.579593  27.939685   0.004434   0.003452  -8.524381  -0.672358   5.928954  -2.211556  -0.000097  -0.000320  -0.488284   0.095132  13.358477  19.341098  -0.003230  -0.005506   2.974864   0.758861  -4.277718 -41.239534  -0.015072   0.033563
 -1.466903   0.930022   6.022956   7.731502  23.630534  -7.557206  15.248509  -5.834489  -0.747920   6.410269  -5.595330   4.006635  -0.739685   0.817792  -0.266964   6.981324  -8.420870   0.240693  14.826573  -0.372837  50.266593  -0.006256  36.855070   0.001269   2.081153   3.969635   0.392235  -0.057306  -1.546925   1.787630  -4.902029  -8.953533 -40.124256  -0.077740 -63.449586  -0.064118   2.446903  -7.174508   7.710800 -25.283234   0.719637   2.523764  27.737465   0.003873   0.002651  -8.305503  -0.709330   5.350445  -2.265044  -0.000258  -0.000236  -1.004600  -0.127592  13.161329  21.475370  -0.004767  -0.005121   3.883835   0.507645  -4.261005 -41.266248  -0.012204   0.026827
 -1.464124   0.930171   6.031820   7.515232  23.537480  -7.157187  15.213433  -5.757762  -0.577033   6.545601  -5.582054   4.076440  -0.791644   0.608011  -0.308807   7.060586  -8.424503   0.455630  14.672701  -0.383054  50.335588  -0.004646  36.897167   0.000884   2.092767   3.808201   0.259886   0.369882  -1.267354   1.471095  -3.682669  -8.708306 -40.920527  -0.086062 -62.234726  -0.069494   2.466238  -7.144608   7.384361 -24.393661   0.879754   2.451740  27.603594   0.003327   0.002153  -8.099469  -0.744976   4.808868  -2.306374  -0.000335  -0.000141  -1.526400  -0.340330  12.922404  23.809598  -0.006740  -0.006513   4.799366   0.241268  -4.237938 -41.270344  -0.009884   0.021420
 -1.461280   0.929804   6.040892   7.284862  23.346134  -6.742566  15.135088  -5.620736  -0.430197   6.662997  -5.508748   4.116977  -0.842732   0.412509  -0.344416   7.126994  -8.419926   0.658956  14.521600  -0.386340  50.399554  -0.003361  36.940274   0.000576   2.103839   3.682054   0.131225   0.821152  -0.957322   1.121510  -2.493519  -8.461758 -41.697818  -0.088327 -61.078105  -0.069433   2.464664  -6.961873   6.975147 -23.465824   1.034384   2.377568  27.515340   0.002829   0.001819  -7.906102  -0.780155   4.303220  -2.339654  -0.000361  -0.000046  -2.005095  -0.543950  12.672489  26.131564  -0.009268  -0.009328   5.704646  -0.025521  -4.207583 -41.091367  -0.007920   0.016550
 -1.458431   0.928925   6.050099   7.075221  23.096940  -6.338768  15.018725  -5.446732  -0.296591   6.750485  -5.393448   4.143093  -0.895105   0.230332  -0.375702   7.182282  -8.408175   0.849328  14.374086  -0.384220  50.458769  -0.002341  36.983806   0.000330   2.114106   3.582138   0.007635   1.274840  -0.631405   0.766317  -1.351267  -8.222519 -42.442899  -0.086154 -59.986512  -0.065794   2.454559  -6.710530   6.538774 -22.537737   1.177832   2.300154  27.455681   0.002381   0.001551  -7.725046  -0.814837   3.831280  -2.367725  -0.000359   0.000033  -2.444621  -0.738318  12.421953  28.368012  -0.011895  -0.012332   6.581575  -0.290915  -4.173310 -40.747325  -0.006264   0.011975
 -1.455621   0.927293   6.059363   6.897717  22.837625  -5.985586  14.870122  -5.254818  -0.141049   6.808995  -5.252824   4.174490  -0.947357   0.060419  -0.403051   7.231277  -8.394534   1.008806  14.233844  -0.381269  50.506932  -0.001538  37.028308   0.000133   2.123527   3.509279  -0.111461   1.717194  -0.300650   0.432811  -0.265613  -7.997473 -43.147251  -0.080760 -58.964860  -0.059952   2.442906  -6.442805   6.100994 -21.629024   1.306276   2.239846  27.422979   0.001966   0.001297  -7.556138  -0.848670   3.391086  -2.396807  -0.000355   0.000099  -2.861009  -0.917353  12.235873  30.436578  -0.014394  -0.013980   7.608096  -0.497642  -4.085421 -37.426903  -0.007661  -0.002058
 -1.452829   0.925224   6.068679   6.753305  22.548108  -5.621548  14.702763  -5.044683  -0.024844   6.840675  -5.091501   4.196664  -1.000728  -0.097721  -0.428042   7.267397  -8.370678   1.172316  14.093763  -0.371908  50.553761  -0.000915  37.071072  -0.000022   2.132753   3.447237  -0.237302   2.140480   0.025774   0.110913   0.759286  -7.784521 -43.805455  -0.073922 -58.003812  -0.053206   2.430359  -6.156193   5.693850 -20.743553   1.432354   2.143625  27.398615   0.001618   0.001087  -7.397578  -0.881327   2.980030  -2.417058  -0.000327   0.000135  -3.229468  -1.094579  11.997937  32.489323  -0.016530  -0.016013   8.365775  -0.768719  -4.060213 -37.823340  -0.006093  -0.000096
 -1.450086   0.922348   6.077754   6.534098  22.461989  -5.218554  14.735257  -4.903275   0.120522   6.797747  -5.037237   4.241358  -1.196300  -0.192384  -0.367407   7.293039  -8.330222   1.443668  13.928404  -0.381566  50.348457   0.001311  37.410833  -0.001111   2.177674   3.217462  -0.292752   2.518345   0.264452  -0.172674   1.868171  -7.489106 -44.409919  -0.070883 -56.741791  -0.049771   2.459102  -6.210831   5.334487 -19.723378   1.622001   1.954248  27.588199   0.001119   0.000869  -7.830446  -0.888292   2.336274  -2.153759   0.000997   0.000051  -4.036882  -1.268782  11.783752  35.758154  -0.018253  -0.012097   7.677237  -0.747705  -3.960530 -34.824033  -0.011911  -0.000350
